<svg version="1" xmlns="http://www.w3.org/2000/svg" width="426.667" height="426.667" viewBox="0 0 320.000000 320.000000"><path d="M139.4 80.6c-1.7.8-4.3 2.7-5.7 4.2-3.4 3.7-96.6 143.8-98.3 147.9-2 4.7-1.7 7.8 1 10.9 2.2 2.6 3 2.8 11.9 3.2 12.4.6 15.6-.6 23.7-8.3 3.6-3.4 7.6-6.8 8.9-7.5 3.9-2 47-17 49-17 3.2 0 3.9 2.2 4.3 13.1.6 16.8 3.1 18.9 22.3 18.9 13.1 0 16.3-1 19.5-6.3 1.8-2.9 2-5.1 2-23.8 0-12.4.4-21.9 1.1-23.8.6-1.7 1.2-3.1 1.2-3.1.1 0 4.3-.9 9.4-1.9 8.3-1.7 9.7-1.8 13.9-.5 2.6.8 8.8 1.4 13.8 1.4 14-.1 17.6-2.3 28.9-18.2 6.5-9.1 8.3-13.7 6.7-16.8-.6-1.1-.9-2.4-.6-2.9 1.2-1.8-10-3.3-19.9-2.7-12.8.9-16.7.9-35.3-.1-19.3-1-19.2-1-19.2-14.7 0-14.3-4.1-13 42.7-13.6l39.8-.5 5-2.8c5.8-3.2 23.7-18.9 26.5-23.3 1.3-1.8 1.9-4.4 1.8-7-.1-3.9-.3-4.1-4.5-5.2-3.1-.9-24.4-1.2-75.6-1.2-62.1 0-71.6.2-74.3 1.6zm-9.4 70.8v27.3l-22.7 8.1c-12.6 4.4-23 7.8-23.2 7.7-.3-.4 45.1-70.5 45.7-70.5.1 0 .2 12.3.2 27.4z"/></svg>