<svg id="fcf5b712-7bd0-4bf9-9e66-ba09277fc08c" data-name="Layer 1" xmlns="http://www.w3.org/2000/svg" viewBox="0 0 259.57 158.05"><polyline points="104.42 1.11 259.57 0 225.92 29.63 136.84 29.63 136.84 69.13 179.84 69.13 157.06 98.77 137.1 98.77 137.1 157.19 104.42 157.19"/><path d="M35.55,238.22H62.12l12.09-14.68L140,200.42V81.28Zm93.08-59.11c-6.59,2.35-36.51,14.37-44.34,17-1.21.42-1.18-.47-.73-1.15l45.91-71.81c-.15.21.51.46.44,1v53.13A1.92,1.92,0,0,1,128.63,179.11Z" transform="translate(-35.55 -80.17)"/><polygon points="187.61 69.13 164.82 98.77 194.34 98.77 216.6 69.13 187.61 69.13"/></svg>